<svg width="34" height="34" viewBox="0 0 34 34" fill="none" xmlns="http://www.w3.org/2000/svg">
<path d="M22.2241 0H11.7946C2.2644 0 0 2.2661 0 11.7759V22.2071C0 31.7339 2.2491 34 11.7759 34H22.2071C31.7339 34 34 31.7509 34 22.2241V11.7946C34 2.2644 31.7509 0 22.2241 0ZM27.4482 24.259H24.9679C24.0295 24.259 23.7473 23.4991 22.0643 21.8161C20.5955 20.4 19.975 20.2232 19.6027 20.2232C19.0893 20.2232 18.9482 20.3643 18.9482 21.0732V23.3036C18.9482 23.9071 18.7527 24.2607 17.1768 24.2607C15.6477 24.1568 14.165 23.6917 12.8505 22.9036C11.536 22.1154 10.4272 21.0267 9.6152 19.7268C7.688 17.3307 6.34785 14.5171 5.7018 11.5107C5.7018 11.1384 5.8429 10.8018 6.5518 10.8018H9.0321C9.6696 10.8018 9.8991 11.0857 10.1473 11.7402C11.3509 15.283 13.4045 18.3634 14.2375 18.3634C14.5571 18.3634 14.6965 18.2223 14.6965 17.425V13.7768C14.5911 12.1125 13.7071 11.9714 13.7071 11.3696C13.7185 11.2109 13.7912 11.0628 13.9099 10.9568C14.0286 10.8508 14.1839 10.7952 14.3429 10.8018H18.2393C18.7714 10.8018 18.9482 11.067 18.9482 11.7045V16.6277C18.9482 17.1598 19.1777 17.3366 19.3375 17.3366C19.6571 17.3366 19.9036 17.1598 20.4884 16.575C21.7444 15.0432 22.7707 13.3366 23.5348 11.509C23.6134 11.2898 23.7613 11.1022 23.9561 10.9746C24.1509 10.8469 24.3819 10.7863 24.6143 10.8018H27.0946C27.8375 10.8018 27.9956 11.1741 27.8375 11.7045C26.9357 13.7249 25.8198 15.6427 24.5089 17.425C24.242 17.833 24.1349 18.0455 24.5089 18.5232C24.7554 18.8955 25.6241 19.6214 26.2089 20.3116C27.0584 21.1596 27.7641 22.1403 28.2982 23.2152C28.5107 23.9054 28.1554 24.259 27.4482 24.259Z" fill="#1766FF"/>
</svg>
