<svg width="14" height="13" viewBox="0 0 14 13" fill="none" xmlns="http://www.w3.org/2000/svg">
<path d="M0.355291 0.342019C0.242666 0.44973 0.153312 0.57767 0.0923468 0.718516C0.0313812 0.859362 0 1.01035 0 1.16283C0 1.31531 0.0313812 1.4663 0.0923468 1.60714C0.153312 1.74799 0.242666 1.87593 0.355291 1.98364L5.06911 6.50101L0.355291 11.0184C0.128132 11.2361 0.000514428 11.5313 0.000514428 11.8392C0.000514428 12.1471 0.128132 12.4423 0.355291 12.66C0.582451 12.8777 0.890546 13 1.2118 13C1.53305 13 1.84114 12.8777 2.0683 12.66L7.64471 7.316C7.75734 7.20829 7.84669 7.08035 7.90765 6.93951C7.96862 6.79866 8 6.64768 8 6.49519C8 6.34271 7.96862 6.19172 7.90765 6.05088C7.84669 5.91003 7.75734 5.78209 7.64471 5.67438L2.0683 0.330376C1.60664 -0.112047 0.829104 -0.112047 0.355291 0.342019Z" fill="white" fill-opacity="0.85"/>
<path d="M6.35529 0.342019C6.24267 0.44973 6.15331 0.57767 6.09235 0.718516C6.03138 0.859362 6 1.01035 6 1.16283C6 1.31531 6.03138 1.4663 6.09235 1.60714C6.15331 1.74799 6.24267 1.87593 6.35529 1.98364L11.0691 6.50101L6.35529 11.0184C6.12813 11.2361 6.00051 11.5313 6.00051 11.8392C6.00051 12.1471 6.12813 12.4423 6.35529 12.66C6.58245 12.8777 6.89055 13 7.2118 13C7.53305 13 7.84115 12.8777 8.06831 12.66L13.6447 7.316C13.7573 7.20829 13.8467 7.08035 13.9077 6.93951C13.9686 6.79866 14 6.64768 14 6.49519C14 6.34271 13.9686 6.19172 13.9077 6.05088C13.8467 5.91003 13.7573 5.78209 13.6447 5.67438L8.06831 0.330376C7.60664 -0.112047 6.8291 -0.112047 6.35529 0.342019Z" fill="white" fill-opacity="0.85"/>
</svg>
