<svg width="44" height="35" viewBox="0 0 44 35" fill="none" xmlns="http://www.w3.org/2000/svg">
<path fill-rule="evenodd" clip-rule="evenodd" d="M22 0C23.881 0 25.8104 0.0481252 27.6804 0.126875L29.8892 0.231875L32.0034 0.356563L33.9834 0.49L35.7918 0.63C37.7546 0.778512 39.6018 1.61095 41.0079 2.98069C42.414 4.35043 43.289 6.16961 43.4786 8.11781L43.5666 9.0475L43.7316 11.0381C43.8856 13.1009 44 15.3497 44 17.5C44 19.6503 43.8856 21.8991 43.7316 23.9619L43.5666 25.9525L43.4786 26.8822C43.2889 28.8307 42.4137 30.6502 41.0071 32.02C39.6005 33.3898 37.7528 34.222 35.7896 34.37L33.9856 34.5078L32.0056 34.6434L29.8892 34.7681L27.6804 34.8731C25.788 34.9546 23.8941 34.9969 22 35C20.1059 34.9969 18.212 34.9546 16.3196 34.8731L14.1108 34.7681L11.9966 34.6434L10.0166 34.5078L8.2082 34.37C6.24539 34.2215 4.39824 33.389 2.9921 32.0193C1.58595 30.6496 0.71102 28.8304 0.5214 26.8822L0.4334 25.9525L0.2684 23.9619C0.100832 21.8118 0.0113072 19.6565 0 17.5C0 15.3497 0.1144 13.1009 0.2684 11.0381L0.4334 9.0475L0.5214 8.11781C0.710946 6.16996 1.58557 4.35105 2.99126 2.98136C4.39695 1.61166 6.24358 0.779005 8.206 0.63L10.0122 0.49L11.9922 0.356563L14.1086 0.231875L16.3174 0.126875C18.2105 0.0453407 20.1051 0.00303971 22 0ZM17.6 12.1953V22.8047C17.6 23.8153 18.7 24.4453 19.58 23.9422L28.82 18.6375C29.0211 18.5224 29.1881 18.3567 29.3042 18.157C29.4203 17.9573 29.4815 17.7307 29.4815 17.5C29.4815 17.2693 29.4203 17.0427 29.3042 16.843C29.1881 16.6433 29.0211 16.4776 28.82 16.3625L19.58 11.06C19.3793 10.9448 19.1516 10.8841 18.9198 10.8842C18.688 10.8842 18.4603 10.9449 18.2596 11.0602C18.0589 11.1755 17.8923 11.3413 17.7765 11.541C17.6607 11.7406 17.5999 11.967 17.6 12.1975V12.1953Z" fill="#FF3030"/>
</svg>
