<svg width="120" height="34" viewBox="0 0 120 34" fill="none" xmlns="http://www.w3.org/2000/svg">
<path d="M86.5786 15.3696V33.9998H96.9287V22.9597H108.659C113.592 22.9252 117.784 19.7684 119.371 15.3696H86.5786Z" fill="white"/>
<path d="M85.1986 0.0170898C85.8024 7.62442 93.0129 13.6447 101.811 13.6447C101.845 13.6447 119.802 13.6447 119.802 13.6447C119.94 12.9547 120.009 12.2302 120.009 11.4885C120.009 5.17489 114.921 0.0688404 108.624 0.0170898H85.1986Z" fill="white"/>
<path d="M69.8806 13.455C70.0013 13.248 70.1911 13.1272 70.4326 13.1272C70.7776 13.1272 71.0363 13.4032 71.0536 13.731V33.8274H81.4037V0.0170898H71.0536C69.7426 0.0688404 68.259 1.0176 67.707 2.20786L59.4787 19.872C59.4614 19.941 59.4269 20.01 59.3924 20.079C59.2717 20.2515 59.0647 20.3723 58.8232 20.3723C58.4437 20.3723 58.1332 20.0618 58.1332 19.6823V0.0170898H47.7831V33.8274H58.1332C59.427 33.7584 60.876 32.8097 61.428 31.6367L69.8806 13.5067C69.8633 13.4895 69.8806 13.4722 69.8806 13.455Z" fill="white"/>
<path d="M31.2401 14.0416L25.1853 33.8276H17.7332L11.6956 14.0244C11.6439 13.7139 11.3679 13.4724 11.0229 13.4724C10.6434 13.4724 10.3501 13.7829 10.3501 14.1451V33.8103H0V0H8.88384H11.5231C13.4206 0 15.4217 1.48352 15.9737 3.29478L21.0107 19.7687C21.2695 20.5967 21.6662 20.5795 21.925 19.7687L26.962 3.29478C27.514 1.46627 29.5151 0 31.4126 0H34.0519H42.9357V33.8103H32.5856V14.1451C32.5856 14.1451 32.5856 14.1451 32.5856 14.1279C32.5856 13.7484 32.2751 13.4551 31.9128 13.4551C31.5678 13.4724 31.2918 13.7139 31.2401 14.0416Z" fill="white"/>
</svg>
