<svg width="104" height="34" viewBox="0 0 104 34" fill="none" xmlns="http://www.w3.org/2000/svg">
<path d="M96.2953 33.5093L95.3203 28.5802H84.4263L82.693 33.4742L73.9613 33.4918C79.5745 19.8538 83.7402 9.75163 86.4587 3.18531C87.1693 1.46778 88.4303 0.591497 90.2893 0.604641C91.7107 0.616325 94.0304 0.617783 97.2487 0.60902L104 33.4961L96.2953 33.5093ZM86.8747 21.8284H93.899L91.2773 9.47268L86.8747 21.8284ZM30.602 0.600258L39.3813 0.60902L25.8093 33.5137L16.9217 33.5049C14.6867 24.8135 12.4796 16.1148 10.3003 7.40902C9.867 5.67397 9.009 4.46031 7.358 3.88634C5.88178 3.37517 3.42911 2.58505 0 1.51598V0.60902H14.027C16.4537 0.60902 17.8707 1.79639 18.3257 4.23248C18.785 6.6744 19.9406 12.8873 21.7923 22.8711L30.602 0.600258ZM51.4453 0.60902L44.5077 33.5093L36.1487 33.4961L43.0733 0.600258L51.4453 0.60902ZM68.3887 0C70.889 0 74.0393 0.788659 75.8507 1.51598L74.386 8.33351C72.748 7.66753 70.0527 6.76933 67.7863 6.8C64.493 6.85696 62.4563 8.25464 62.4563 9.59536C62.4563 11.7773 65.9923 12.8771 69.6323 15.2606C73.7837 17.9771 74.334 20.4175 74.282 23.0727C74.2257 28.5714 69.6323 34 59.943 34C55.523 33.9343 53.9283 33.5619 50.323 32.2649L51.8483 25.1495C55.5187 26.7005 57.0743 27.1956 60.2117 27.1956C63.0847 27.1956 65.5503 26.0214 65.572 23.9753C65.5893 22.5206 64.7053 21.7977 61.4813 20.0013C58.2573 18.2049 53.7333 15.7119 53.794 10.7039C53.8677 4.29819 59.8693 0 68.3887 0Z" fill="white"/>
</svg>
