<svg width="17" height="13" viewBox="0 0 17 13" fill="none" xmlns="http://www.w3.org/2000/svg">
<path d="M14.3841 1.08035C13.3074 0.576726 12.1417 0.211195 10.9274 0C10.906 0.000305181 10.8857 0.00906416 10.8707 0.0243689C10.725 0.292424 10.555 0.641709 10.4417 0.909764C9.15366 0.714937 7.84383 0.714937 6.55584 0.909764C6.4425 0.633586 6.2725 0.292424 6.11868 0.0243689C6.11059 0.00812307 6.0863 0 6.06201 0C4.84769 0.211195 3.69004 0.576726 2.60525 1.08035C2.59716 1.08035 2.58906 1.08847 2.58097 1.09659C0.379 4.40261 -0.228159 7.61928 0.0713729 10.8035C0.0713729 10.8197 0.0794683 10.8359 0.0956592 10.8441C1.55284 11.9163 2.95336 12.5661 4.33768 12.9966C4.36197 13.0048 4.38625 12.9966 4.39435 12.9804C4.71817 12.5336 5.0096 12.0625 5.26056 11.567C5.27675 11.5345 5.26056 11.502 5.22818 11.4939C4.76674 11.3152 4.32959 11.104 3.90053 10.8603C3.86814 10.8441 3.86814 10.7953 3.89243 10.771C3.98148 10.706 4.07053 10.6329 4.15958 10.5679C4.17577 10.5516 4.20006 10.5516 4.21625 10.5598C7.00109 11.8351 10.0045 11.8351 12.757 10.5598C12.7731 10.5516 12.7974 10.5516 12.8136 10.5679C12.9027 10.641 12.9917 10.706 13.0808 10.7791C13.1132 10.8035 13.1132 10.8522 13.0727 10.8684C12.6517 11.1202 12.2065 11.3233 11.745 11.502C11.7126 11.5101 11.7045 11.5508 11.7126 11.5751C11.9717 12.0706 12.2631 12.5418 12.5789 12.9885C12.6031 12.9966 12.6274 13.0048 12.6517 12.9966C14.0441 12.5661 15.4446 11.9163 16.9018 10.8441C16.918 10.8359 16.9261 10.8197 16.9261 10.8035C17.2823 7.12378 16.3351 3.93148 14.4165 1.09659C14.4084 1.08847 14.4003 1.08035 14.3841 1.08035ZM5.68153 8.86208C4.84769 8.86208 4.15148 8.0904 4.15148 7.14003C4.15148 6.18965 4.8315 5.41797 5.68153 5.41797C6.53965 5.41797 7.21966 6.19777 7.21157 7.14003C7.21157 8.0904 6.53155 8.86208 5.68153 8.86208ZM11.3241 8.86208C10.4902 8.86208 9.79402 8.0904 9.79402 7.14003C9.79402 6.18965 10.474 5.41797 11.3241 5.41797C12.1822 5.41797 12.8622 6.19777 12.8541 7.14003C12.8541 8.0904 12.1822 8.86208 11.3241 8.86208Z" fill="white"/>
</svg>
