<svg width="18" height="11" viewBox="0 0 18 11" fill="none" xmlns="http://www.w3.org/2000/svg">
<path d="M14 4.125V0.916667C14 0.673552 13.8946 0.440394 13.7071 0.268486C13.5196 0.0965773 13.2652 0 13 0H1C0.734784 0 0.48043 0.0965773 0.292893 0.268486C0.105357 0.440394 0 0.673552 0 0.916667V10.0833C0 10.3264 0.105357 10.5596 0.292893 10.7315C0.48043 10.9034 0.734784 11 1 11H13C13.2652 11 13.5196 10.9034 13.7071 10.7315C13.8946 10.5596 14 10.3264 14 10.0833V6.875L18 10.5417V0.458333L14 4.125Z" fill="#131C33"/>
</svg>
