<svg width="34" height="34" viewBox="0 0 34 34" fill="none" xmlns="http://www.w3.org/2000/svg">
<path fill-rule="evenodd" clip-rule="evenodd" d="M7.28631 0C5.35435 -1.42458e-07 3.50147 0.767279 2.1351 2.13312C0.768732 3.49897 0.000741922 5.35155 0 7.28352V26.7137C0 28.6461 0.767663 30.4994 2.13411 31.8659C3.50056 33.2323 5.35386 34 7.28631 34H26.7165C28.6484 33.9993 30.501 33.2313 31.8669 31.8649C33.2327 30.4985 34 28.6457 34 26.7137V7.28352C33.9993 5.35204 33.2317 3.49987 31.8659 2.13411C30.5001 0.768348 28.648 0.000741594 26.7165 0H7.28631ZM28.8123 7.29471C28.8123 7.85129 28.5912 8.38507 28.1976 8.77864C27.8041 9.1722 27.2703 9.3933 26.7137 9.3933C26.1571 9.3933 25.6233 9.1722 25.2298 8.77864C24.8362 8.38507 24.6151 7.85129 24.6151 7.29471C24.6151 6.73813 24.8362 6.20434 25.2298 5.81078C25.6233 5.41722 26.1571 5.19612 26.7137 5.19612C27.2703 5.19612 27.8041 5.41722 28.1976 5.81078C28.5912 6.20434 28.8123 6.73813 28.8123 7.29471ZM17.0042 11.1785C15.4606 11.1785 13.9802 11.7917 12.8888 12.8832C11.7973 13.9746 11.1841 15.455 11.1841 16.9986C11.1841 18.5422 11.7973 20.0226 12.8888 21.114C13.9802 22.2055 15.4606 22.8187 17.0042 22.8187C18.5478 22.8187 20.0281 22.2055 21.1196 21.114C22.2111 20.0226 22.8243 18.5422 22.8243 16.9986C22.8243 15.455 22.2111 13.9746 21.1196 12.8832C20.0281 11.7917 18.5478 11.1785 17.0042 11.1785ZM8.38318 16.9986C8.38318 14.7129 9.29117 12.5208 10.9074 10.9046C12.5236 9.28837 14.7157 8.38038 17.0014 8.38038C19.2871 8.38038 21.4792 9.28837 23.0954 10.9046C24.7116 12.5208 25.6196 14.7129 25.6196 16.9986C25.6196 19.2843 24.7116 21.4764 23.0954 23.0926C21.4792 24.7088 19.2871 25.6168 17.0014 25.6168C14.7157 25.6168 12.5236 24.7088 10.9074 23.0926C9.29117 21.4764 8.38318 19.2843 8.38318 16.9986Z" fill="#FF16E8"/>
</svg>
