<svg width="38" height="32" viewBox="0 0 38 32" fill="none" xmlns="http://www.w3.org/2000/svg">
<path fill-rule="evenodd" clip-rule="evenodd" d="M34.0638 0.218922C34.5311 0.0250783 35.0425 -0.0417771 35.5448 0.0253136C36.0471 0.0924042 36.522 0.290989 36.92 0.600397C37.3181 0.909806 37.6247 1.31873 37.8081 1.7846C37.9914 2.25047 38.0447 2.75626 37.9624 3.24933L33.6744 28.8885C33.2584 31.3617 30.5056 32.7799 28.2047 31.548C26.28 30.5174 23.4213 28.9295 20.85 27.2727C19.5644 26.4433 15.6261 23.7875 16.1101 21.8977C16.5261 20.2819 23.1434 14.2099 26.9247 10.5998C28.4089 9.18155 27.732 8.36337 25.9794 9.66798C21.6271 12.9071 14.6392 17.8329 12.3288 19.2195C10.2907 20.4421 9.22811 20.6509 7.95758 20.4421C5.63963 20.0619 3.48995 19.473 1.73542 18.7555C-0.635474 17.7863 -0.520144 14.5733 1.73353 13.6377L34.0638 0.218922Z" fill="#00C2FF"/>
</svg>
